<svg width="242" height="50" viewBox="0 0 242 50" fill="none" xmlns="http://www.w3.org/2000/svg">
<g filter="url(#filter0_d_8_866)">
<rect x="4" width="234" height="42" rx="10" fill="#D9D9D9" fill-opacity="0.44" shape-rendering="crispEdges"/>
<path d="M16.6667 27.3C15.6556 27.3 14.8009 26.9617 14.1028 26.285C13.4046 25.6083 13.0556 24.78 13.0556 23.8C13.0556 22.82 13.4046 21.9917 14.1028 21.315C14.8009 20.6383 15.6556 20.3 16.6667 20.3C17.6778 20.3 18.5324 20.6383 19.2306 21.315C19.9287 21.9917 20.2778 22.82 20.2778 23.8C20.2778 24.78 19.9287 25.6083 19.2306 26.285C18.5324 26.9617 17.6778 27.3 16.6667 27.3ZM10.8889 35C10.0944 35 9.41435 34.7258 8.84861 34.1775C8.28287 33.6292 8 32.97 8 32.2V12.6C8 11.83 8.28287 11.1708 8.84861 10.6225C9.41435 10.0742 10.0944 9.8 10.8889 9.8H12.3333V7H15.2222V9.8H26.7778V7H29.6667V9.8H31.1111C31.9056 9.8 32.5856 10.0742 33.1514 10.6225C33.7171 11.1708 34 11.83 34 12.6V32.2C34 32.97 33.7171 33.6292 33.1514 34.1775C32.5856 34.7258 31.9056 35 31.1111 35H10.8889ZM10.8889 32.2H31.1111V18.2H10.8889V32.2ZM10.8889 15.4H31.1111V12.6H10.8889V15.4Z" fill="white"/>
<path d="M51.5312 26L51.0703 23.5312H46.9922L45.9219 26H43.9297L49.125 14.6328H51.0859L53.4922 26H51.5312ZM47.6953 21.8906H50.7578L49.8438 17.0078H49.8125L47.6953 21.8906ZM64.1953 19.9453L63.6328 24.7188C63.1172 25.1562 62.4844 25.5 61.7422 25.75C60.9922 26 60.2344 26.125 59.4688 26.125C58.7969 26.125 58.1797 26.0312 57.625 25.8281C57.0625 25.625 56.5781 25.3359 56.1562 24.9453C55.7344 24.5625 55.4141 24.0625 55.1797 23.4531C54.9453 22.8438 54.8359 22.1562 54.8359 21.3828C54.8359 20.6406 54.9219 19.9219 55.1094 19.2266C55.2969 18.5391 55.5625 17.9062 55.9141 17.3359C56.2578 16.7734 56.6719 16.2734 57.1406 15.8516C57.6094 15.4297 58.1484 15.0938 58.7578 14.8594C59.3594 14.625 59.9922 14.5078 60.6562 14.5078C61.5 14.5078 62.25 14.6719 62.9062 15C63.5625 15.3281 64.1094 15.8125 64.5469 16.4609L62.9844 17.6172C62.4297 16.7422 61.6328 16.2969 60.5859 16.2969C60.0469 16.2969 59.5469 16.4297 59.0781 16.6953C58.6094 16.9609 58.2109 17.3281 57.8828 17.7812C57.5547 18.2344 57.2969 18.7734 57.1094 19.3906C56.9219 20.0078 56.8281 20.6562 56.8281 21.3359C56.8281 21.8125 56.8828 22.2422 57.0078 22.6172C57.125 23 57.2969 23.3203 57.5234 23.5859C57.75 23.8516 58.0312 24.0469 58.375 24.1875C58.7188 24.3281 59.1016 24.3984 59.5391 24.3984C60.3203 24.3984 61.0859 24.1484 61.8359 23.6328L62.1016 21.6406H59.7188L59.9375 19.9453H64.1953ZM73.1172 24.3047L72.9062 26H66.0625L67.4609 14.6328H74L73.7891 16.3281H69.1328L68.7344 19.5156H72.5L72.2891 21.2109H68.5312L68.1562 24.3047H73.1172ZM83.3984 14.6328H85.2812L83.8828 26H81.8203L78.1797 17.9375H78.1484L77.1562 26H75.2656L76.6641 14.6328H78.6719L82.3516 22.8359H82.3906L83.3984 14.6328ZM90.2656 26H86.8125L88.2109 14.6328H91.6094C92.6172 14.6328 93.4688 14.8281 94.1719 15.2109C94.875 15.6016 95.3984 16.1406 95.7422 16.8359C96.0859 17.5391 96.2578 18.3672 96.2578 19.3359C96.2578 20.3359 96.1172 21.2422 95.8359 22.0703C95.5547 22.8984 95.1641 23.5938 94.6562 24.1719C94.1406 24.75 93.5156 25.2031 92.7656 25.5234C92.0156 25.8438 91.1797 26 90.2656 26ZM90.4531 24.3047C91.0312 24.3047 91.5547 24.1875 92.0391 23.9375C92.5234 23.6875 92.9297 23.3438 93.2578 22.9062C93.5859 22.4688 93.8359 21.9453 94.0156 21.3359C94.1953 20.7266 94.2891 20.0547 94.2891 19.3359C94.2891 18.4141 94.0391 17.6797 93.5469 17.1406C93.0547 16.6016 92.3594 16.3281 91.4531 16.3281H89.8984L88.9219 24.3047H90.4531ZM104.961 24.3047L104.75 26H97.9062L99.3047 14.6328H105.844L105.633 16.3281H100.977L100.578 19.5156H104.344L104.133 21.2109H100.375L100 24.3047H104.961ZM114.422 19.25C114.562 19.3359 114.75 19.4453 114.984 19.5703C115.211 19.6953 115.398 19.8047 115.547 19.8828C115.688 19.9609 115.859 20.0703 116.055 20.1953C116.25 20.3203 116.414 20.4375 116.539 20.5391C116.664 20.6484 116.789 20.7734 116.93 20.9219C117.062 21.0703 117.172 21.2188 117.25 21.3672C117.328 21.5234 117.391 21.6953 117.438 21.8906C117.484 22.0938 117.516 22.3047 117.516 22.5234C117.516 23.1094 117.414 23.6328 117.211 24.1016C117.008 24.5703 116.727 24.9453 116.367 25.2344C116.008 25.5234 115.602 25.7422 115.141 25.8984C114.672 26.0547 114.172 26.125 113.641 26.125C112.82 26.125 112.07 25.9531 111.391 25.6094C110.711 25.2656 110.188 24.7969 109.82 24.2109L111.219 22.9297C111.359 23.2422 111.562 23.5078 111.812 23.7266C112.062 23.9453 112.328 24.1094 112.625 24.2188C112.914 24.3281 113.211 24.3828 113.523 24.3828C114.102 24.3828 114.578 24.2266 114.961 23.9141C115.344 23.6016 115.531 23.2266 115.531 22.7812C115.531 22.6484 115.5 22.5234 115.453 22.4141C115.406 22.3047 115.352 22.2031 115.289 22.125C115.227 22.0469 115.125 21.9531 114.984 21.8516C114.844 21.7578 114.719 21.6797 114.617 21.6172C114.508 21.5547 114.344 21.4688 114.125 21.3438C113.906 21.2188 113.727 21.1172 113.586 21.0312C113.516 20.9922 113.406 20.9297 113.266 20.8438C113.086 20.7422 112.953 20.6641 112.859 20.6094C112.766 20.5547 112.633 20.4766 112.461 20.3672C112.289 20.2578 112.164 20.1719 112.07 20.0938C111.977 20.0234 111.867 19.9297 111.727 19.8125C111.586 19.7031 111.484 19.5938 111.406 19.5C111.328 19.4062 111.242 19.2891 111.148 19.1484C111.055 19.0156 110.992 18.8828 110.945 18.75C110.898 18.625 110.852 18.4766 110.82 18.3125C110.789 18.1484 110.773 17.9766 110.773 17.8047C110.773 17.3125 110.867 16.8594 111.062 16.4375C111.258 16.0234 111.523 15.6797 111.859 15.3984C112.188 15.1172 112.578 14.8984 113.031 14.7422C113.484 14.5859 113.961 14.5078 114.477 14.5078C115.117 14.5078 115.734 14.6562 116.328 14.9453C116.914 15.2422 117.406 15.6406 117.805 16.1562L116.438 17.3594C116.281 17.1406 116.117 16.9531 115.938 16.7969C115.75 16.6406 115.57 16.5234 115.383 16.4453C115.195 16.3672 115.016 16.3047 114.852 16.2734C114.68 16.2422 114.516 16.2188 114.352 16.2188C113.859 16.2188 113.469 16.3516 113.172 16.6172C112.875 16.8828 112.727 17.2031 112.742 17.5781C112.742 17.6953 112.758 17.7969 112.789 17.8906C112.812 17.9844 112.859 18.0781 112.938 18.1719C113.016 18.2656 113.086 18.3516 113.148 18.4141C113.211 18.4766 113.32 18.5625 113.469 18.6641C113.617 18.7656 113.742 18.8438 113.844 18.9062C113.938 18.9688 114.102 19.0625 114.32 19.1875C114.367 19.2188 114.398 19.2344 114.422 19.25ZM128.086 21.2969C127.883 22.9531 127.391 24.1719 126.625 24.9531C125.859 25.7344 124.781 26.125 123.398 26.125C122.773 26.125 122.234 26.0312 121.766 25.8438C121.297 25.6562 120.914 25.3828 120.625 25.0234C120.328 24.6719 120.109 24.25 119.969 23.7656C119.82 23.2812 119.75 22.7266 119.75 22.1172C119.75 21.8359 119.766 21.5078 119.812 21.1484L120.617 14.6328H122.5L121.695 21.1484C121.656 21.4453 121.641 21.7344 121.641 22.0312C121.641 23.5703 122.25 24.3359 123.484 24.3359C124.234 24.3359 124.844 24.1016 125.312 23.6172C125.773 23.1406 126.07 22.3672 126.203 21.2891L127.016 14.6328H128.906L128.086 21.2969ZM136.266 26L135.805 23.5312H131.727L130.656 26H128.664L133.859 14.6328H135.82L138.227 26H136.266ZM132.43 21.8906H135.492L134.578 17.0078H134.547L132.43 21.8906ZM150.383 24.3047L150.172 26H143.328L144.727 14.6328H151.266L151.055 16.3281H146.398L146 19.5156H149.766L149.555 21.2109H145.797L145.422 24.3047H150.383ZM160.664 14.6328H162.547L161.148 26H159.086L155.445 17.9375H155.414L154.422 26H152.531L153.93 14.6328H155.938L159.617 22.8359H159.656L160.664 14.6328ZM172.008 16.3281H169.109L167.922 26H166.031L167.227 16.3281H164.336L164.539 14.6328H172.211L172.008 16.3281ZM178.625 21.6328V21.6719L180.664 26H178.477L176.672 21.9219H175.203L174.703 26H172.812L174.211 14.6328H178.117C179.195 14.6328 179.977 14.8984 180.477 15.4141C180.969 15.9297 181.219 16.6953 181.219 17.6953C181.219 18.6719 180.992 19.5 180.555 20.1797C180.109 20.8672 179.469 21.3516 178.625 21.6328ZM175.891 16.3281L175.406 20.2188H176.984C177.68 20.2188 178.234 20 178.641 19.5625C179.047 19.125 179.258 18.5078 179.258 17.6953C179.258 17.2812 179.109 16.9531 178.828 16.7031C178.539 16.4531 178.156 16.3281 177.68 16.3281H175.891ZM189.82 24.3047L189.609 26H182.766L184.164 14.6328H190.703L190.492 16.3281H185.836L185.438 19.5156H189.203L188.992 21.2109H185.234L184.859 24.3047H189.82ZM199.633 14.6328H201.781L196.594 26H194.805L192.406 14.6328H194.398L195.984 23.3359H196.016L199.633 14.6328ZM204.219 26H202.32L203.719 14.6328H205.617L204.219 26ZM211.281 19.25C211.422 19.3359 211.609 19.4453 211.844 19.5703C212.07 19.6953 212.258 19.8047 212.406 19.8828C212.547 19.9609 212.719 20.0703 212.914 20.1953C213.109 20.3203 213.273 20.4375 213.398 20.5391C213.523 20.6484 213.648 20.7734 213.789 20.9219C213.922 21.0703 214.031 21.2188 214.109 21.3672C214.188 21.5234 214.25 21.6953 214.297 21.8906C214.344 22.0938 214.375 22.3047 214.375 22.5234C214.375 23.1094 214.273 23.6328 214.07 24.1016C213.867 24.5703 213.586 24.9453 213.227 25.2344C212.867 25.5234 212.461 25.7422 212 25.8984C211.531 26.0547 211.031 26.125 210.5 26.125C209.68 26.125 208.93 25.9531 208.25 25.6094C207.57 25.2656 207.047 24.7969 206.68 24.2109L208.078 22.9297C208.219 23.2422 208.422 23.5078 208.672 23.7266C208.922 23.9453 209.188 24.1094 209.484 24.2188C209.773 24.3281 210.07 24.3828 210.383 24.3828C210.961 24.3828 211.438 24.2266 211.82 23.9141C212.203 23.6016 212.391 23.2266 212.391 22.7812C212.391 22.6484 212.359 22.5234 212.312 22.4141C212.266 22.3047 212.211 22.2031 212.148 22.125C212.086 22.0469 211.984 21.9531 211.844 21.8516C211.703 21.7578 211.578 21.6797 211.477 21.6172C211.367 21.5547 211.203 21.4688 210.984 21.3438C210.766 21.2188 210.586 21.1172 210.445 21.0312C210.375 20.9922 210.266 20.9297 210.125 20.8438C209.945 20.7422 209.812 20.6641 209.719 20.6094C209.625 20.5547 209.492 20.4766 209.32 20.3672C209.148 20.2578 209.023 20.1719 208.93 20.0938C208.836 20.0234 208.727 19.9297 208.586 19.8125C208.445 19.7031 208.344 19.5938 208.266 19.5C208.188 19.4062 208.102 19.2891 208.008 19.1484C207.914 19.0156 207.852 18.8828 207.805 18.75C207.758 18.625 207.711 18.4766 207.68 18.3125C207.648 18.1484 207.633 17.9766 207.633 17.8047C207.633 17.3125 207.727 16.8594 207.922 16.4375C208.117 16.0234 208.383 15.6797 208.719 15.3984C209.047 15.1172 209.438 14.8984 209.891 14.7422C210.344 14.5859 210.82 14.5078 211.336 14.5078C211.977 14.5078 212.594 14.6562 213.188 14.9453C213.773 15.2422 214.266 15.6406 214.664 16.1562L213.297 17.3594C213.141 17.1406 212.977 16.9531 212.797 16.7969C212.609 16.6406 212.43 16.5234 212.242 16.4453C212.055 16.3672 211.875 16.3047 211.711 16.2734C211.539 16.2422 211.375 16.2188 211.211 16.2188C210.719 16.2188 210.328 16.3516 210.031 16.6172C209.734 16.8828 209.586 17.2031 209.602 17.5781C209.602 17.6953 209.617 17.7969 209.648 17.8906C209.672 17.9844 209.719 18.0781 209.797 18.1719C209.875 18.2656 209.945 18.3516 210.008 18.4141C210.07 18.4766 210.18 18.5625 210.328 18.6641C210.477 18.7656 210.602 18.8438 210.703 18.9062C210.797 18.9688 210.961 19.0625 211.18 19.1875C211.227 19.2188 211.258 19.2344 211.281 19.25ZM223.961 16.3281H221.062L219.875 26H217.984L219.18 16.3281H216.289L216.492 14.6328H224.164L223.961 16.3281ZM230.375 26L229.914 23.5312H225.836L224.766 26H222.773L227.969 14.6328H229.93L232.336 26H230.375ZM226.539 21.8906H229.602L228.688 17.0078H228.656L226.539 21.8906Z" fill="white"/>
<rect x="4.5" y="0.5" width="233" height="41" rx="9.5" stroke="white" shape-rendering="crispEdges"/>
</g>
<defs>
<filter id="filter0_d_8_866" x="0" y="0" width="242" height="50" filterUnits="userSpaceOnUse" color-interpolation-filters="sRGB">
<feFlood flood-opacity="0" result="BackgroundImageFix"/>
<feColorMatrix in="SourceAlpha" type="matrix" values="0 0 0 0 0 0 0 0 0 0 0 0 0 0 0 0 0 0 127 0" result="hardAlpha"/>
<feOffset dy="4"/>
<feGaussianBlur stdDeviation="2"/>
<feComposite in2="hardAlpha" operator="out"/>
<feColorMatrix type="matrix" values="0 0 0 0 0 0 0 0 0 0 0 0 0 0 0 0 0 0 0.25 0"/>
<feBlend mode="normal" in2="BackgroundImageFix" result="effect1_dropShadow_8_866"/>
<feBlend mode="normal" in="SourceGraphic" in2="effect1_dropShadow_8_866" result="shape"/>
</filter>
</defs>
</svg>
