<svg width="14" height="14" viewBox="0 0 14 14" fill="none" xmlns="http://www.w3.org/2000/svg">
<path d="M11.0833 7C11.0833 5.8625 10.6872 4.89757 9.89479 4.10521C9.10243 3.31285 8.1375 2.91667 7 2.91667V1.75C7.72917 1.75 8.41215 1.88854 9.04896 2.16563C9.68576 2.44271 10.2399 2.81701 10.7115 3.28854C11.183 3.76007 11.5573 4.31424 11.8344 4.95104C12.1115 5.58785 12.25 6.27083 12.25 7H11.0833ZM8.75 7C8.75 6.51389 8.57986 6.10069 8.23958 5.76042C7.89931 5.42014 7.48611 5.25 7 5.25V4.08333C7.80694 4.08333 8.49479 4.36771 9.06354 4.93646C9.63229 5.50521 9.91667 6.19306 9.91667 7H8.75ZM11.6375 12.25C10.4222 12.25 9.22153 11.9851 8.03542 11.4552C6.84931 10.9253 5.77014 10.1743 4.79792 9.20208C3.82569 8.22986 3.07465 7.15069 2.54479 5.96458C2.01493 4.77847 1.75 3.57778 1.75 2.3625C1.75 2.1875 1.80833 2.04167 1.925 1.925C2.04167 1.80833 2.1875 1.75 2.3625 1.75H4.725C4.86111 1.75 4.98264 1.79618 5.08958 1.88854C5.19653 1.9809 5.25972 2.09028 5.27917 2.21667L5.65833 4.25833C5.67778 4.41389 5.67292 4.54514 5.64375 4.65208C5.61458 4.75903 5.56111 4.85139 5.48333 4.92917L4.06875 6.35833C4.26319 6.71806 4.4941 7.06563 4.76146 7.40104C5.02882 7.73646 5.32292 8.05972 5.64375 8.37083C5.94514 8.67222 6.26111 8.95174 6.59167 9.20937C6.92222 9.46701 7.27222 9.70278 7.64167 9.91667L9.0125 8.54583C9.1 8.45833 9.21424 8.39271 9.35521 8.34896C9.49618 8.30521 9.63472 8.29306 9.77083 8.3125L11.7833 8.72083C11.9194 8.75972 12.0312 8.83021 12.1187 8.93229C12.2063 9.03438 12.25 9.14861 12.25 9.275V11.6375C12.25 11.8125 12.1917 11.9583 12.075 12.075C11.9583 12.1917 11.8125 12.25 11.6375 12.25ZM3.51458 5.25L4.47708 4.2875L4.22917 2.91667H2.93125C2.97986 3.31528 3.04792 3.70903 3.13542 4.09792C3.22292 4.48681 3.34931 4.87083 3.51458 5.25ZM8.73542 10.4708C9.11458 10.6361 9.50104 10.7674 9.89479 10.8646C10.2885 10.9618 10.6847 11.025 11.0833 11.0542V9.77083L9.7125 9.49375L8.73542 10.4708Z" fill="white"/>
</svg>
