<svg width="14" height="16" viewBox="0 0 14 16" fill="none" xmlns="http://www.w3.org/2000/svg">
<g clip-path="url(#clip0_8_880)">
<path d="M7.00312 4.40625C5.01562 4.40625 3.41249 6.00937 3.41249 7.99687C3.41249 9.98437 5.01562 11.5875 7.00312 11.5875C8.99062 11.5875 10.5937 9.98437 10.5937 7.99687C10.5937 6.00937 8.99062 4.40625 7.00312 4.40625ZM7.00312 10.3312C5.71874 10.3312 4.66874 9.28437 4.66874 7.99687C4.66874 6.70937 5.71562 5.6625 7.00312 5.6625C8.29062 5.6625 9.33749 6.70937 9.33749 7.99687C9.33749 9.28437 8.28749 10.3312 7.00312 10.3312ZM11.5781 4.25937C11.5781 4.725 11.2031 5.09687 10.7406 5.09687C10.275 5.09687 9.90312 4.72187 9.90312 4.25937C9.90312 3.79687 10.2781 3.42187 10.7406 3.42187C11.2031 3.42187 11.5781 3.79687 11.5781 4.25937ZM13.9562 5.10937C13.9031 3.9875 13.6469 2.99375 12.825 2.175C12.0062 1.35625 11.0125 1.1 9.89062 1.04375C8.73437 0.978123 5.26874 0.978123 4.11249 1.04375C2.99374 1.09687 1.99999 1.35312 1.17812 2.17187C0.356244 2.99062 0.103119 3.98437 0.0468689 5.10625C-0.0187561 6.2625 -0.0187561 9.72812 0.0468689 10.8844C0.0999939 12.0062 0.356244 13 1.17812 13.8188C1.99999 14.6375 2.99062 14.8937 4.11249 14.95C5.26874 15.0156 8.73437 15.0156 9.89062 14.95C11.0125 14.8969 12.0062 14.6406 12.825 13.8188C13.6437 13 13.9 12.0062 13.9562 10.8844C14.0219 9.72812 14.0219 6.26562 13.9562 5.10937ZM12.4625 12.125C12.2187 12.7375 11.7469 13.2094 11.1312 13.4563C10.2094 13.8219 8.02187 13.7375 7.00312 13.7375C5.98437 13.7375 3.79374 13.8187 2.87499 13.4563C2.26249 13.2125 1.79062 12.7406 1.54374 12.125C1.17812 11.2031 1.26249 9.01562 1.26249 7.99687C1.26249 6.97812 1.18124 4.7875 1.54374 3.86875C1.78749 3.25625 2.25937 2.78437 2.87499 2.5375C3.79687 2.17187 5.98437 2.25625 7.00312 2.25625C8.02187 2.25625 10.2125 2.175 11.1312 2.5375C11.7437 2.78125 12.2156 3.25312 12.4625 3.86875C12.8281 4.79062 12.7437 6.97812 12.7437 7.99687C12.7437 9.01562 12.8281 11.2062 12.4625 12.125Z" fill="white"/>
</g>
<defs>
<clipPath id="clip0_8_880">
<rect width="14" height="16" fill="white"/>
</clipPath>
</defs>
</svg>
