<svg width="14" height="16" viewBox="0 0 14 16" fill="none" xmlns="http://www.w3.org/2000/svg">
<path d="M11.9031 3.03438C10.5938 1.72188 8.85 1 6.99687 1C3.17187 1 0.059375 4.1125 0.059375 7.9375C0.059375 9.15938 0.378125 10.3531 0.984375 11.4063L0 15L3.67812 14.0344C4.69063 14.5875 5.83125 14.8781 6.99375 14.8781H6.99687C10.8188 14.8781 14 11.7656 14 7.94063C14 6.0875 13.2125 4.34688 11.9031 3.03438ZM6.99687 13.7094C5.95937 13.7094 4.94375 13.4313 4.05937 12.9063L3.85 12.7813L1.66875 13.3531L2.25 11.225L2.1125 11.0063C1.53437 10.0875 1.23125 9.02813 1.23125 7.9375C1.23125 4.75938 3.81875 2.17188 7 2.17188C8.54062 2.17188 9.9875 2.77188 11.075 3.8625C12.1625 4.95313 12.8313 6.4 12.8281 7.94063C12.8281 11.1219 10.175 13.7094 6.99687 13.7094ZM10.1594 9.39063C9.9875 9.30313 9.13438 8.88438 8.975 8.82813C8.81563 8.76875 8.7 8.74063 8.58438 8.91563C8.46875 9.09063 8.1375 9.47813 8.03438 9.59688C7.93438 9.7125 7.83125 9.72813 7.65938 9.64063C6.64062 9.13125 5.97188 8.73125 5.3 7.57813C5.12188 7.27188 5.47812 7.29375 5.80937 6.63125C5.86562 6.51563 5.8375 6.41563 5.79375 6.32813C5.75 6.24063 5.40313 5.3875 5.25938 5.04063C5.11875 4.70313 4.975 4.75 4.86875 4.74375C4.76875 4.7375 4.65312 4.7375 4.5375 4.7375C4.42188 4.7375 4.23438 4.78125 4.075 4.95313C3.91562 5.12813 3.46875 5.54688 3.46875 6.4C3.46875 7.25313 4.09063 8.07813 4.175 8.19375C4.2625 8.30938 5.39687 10.0594 7.1375 10.8125C8.2375 11.2875 8.66875 11.3281 9.21875 11.2469C9.55313 11.1969 10.2437 10.8281 10.3875 10.4219C10.5312 10.0156 10.5312 9.66875 10.4875 9.59688C10.4469 9.51875 10.3313 9.475 10.1594 9.39063Z" fill="white"/>
</svg>
