<svg width="14" height="18" viewBox="0 0 14 18" fill="none" xmlns="http://www.w3.org/2000/svg">
<g clip-path="url(#clip0_8_882)">
<path d="M7.86406 17.55C9.73438 15.293 14 9.82266 14 6.75C14 3.02344 10.8646 0 7 0C3.13542 0 0 3.02344 0 6.75C0 9.82266 4.26562 15.293 6.13594 17.55C6.58437 18.0879 7.41562 18.0879 7.86406 17.55ZM7 4.5C7.61884 4.5 8.21233 4.73705 8.64992 5.15901C9.0875 5.58097 9.33333 6.15326 9.33333 6.75C9.33333 7.34674 9.0875 7.91903 8.64992 8.34099C8.21233 8.76295 7.61884 9 7 9C6.38116 9 5.78767 8.76295 5.35008 8.34099C4.9125 7.91903 4.66667 7.34674 4.66667 6.75C4.66667 6.15326 4.9125 5.58097 5.35008 5.15901C5.78767 4.73705 6.38116 4.5 7 4.5Z" fill="white"/>
</g>
<defs>
<clipPath id="clip0_8_882">
<rect width="14" height="18" fill="white"/>
</clipPath>
</defs>
</svg>
